<?xml version="1.0" encoding="utf-8"?>
<svg width="16" height="16" viewBox="0 0 16 16" fill="none" xmlns="http://www.w3.org/2000/svg">
  <g>
    <g transform="translate(2 2)">
      <path d="M9 0C10.6571 0 12 1.34292 12 3L12 9C12 10.6571 10.6571 12 9 12L3 12C1.34292 12 0 10.6571 0 9L0 3C0 1.34292 1.34292 0 3 0L9 0Z" />
      <path d="M12 3C12 1.34292 10.6571 0 9 0L3 0C1.34292 0 0 1.34292 0 3L0 9C0 10.6571 1.34292 12 3 12L9 12C10.6571 12 12 10.6571 12 9L12 3ZM3 1L9 1Q11 1 11 3L11 9Q11 11 9 11L3 11Q1 11 1 9L1 3Q1 1 3 1Z" fill="#FFFFFF" fill-rule="evenodd" />
    </g>
    <line x1="0" y1="1" x2="4.5" y2="1" fill="none" stroke-width="1" stroke="#FFFFFF" stroke-linecap="square" transform="translate(3 5.5)" />
    <line x1="0" y1="1" x2="6" y2="1" fill="none" stroke-width="1" stroke="#FFFFFF" stroke-linecap="square" transform="translate(3 8.5)" />
  </g>
</svg>